{
    "asset" : {
        "generator" : "Khronos glTF Blender I/O v1.8.19",
        "version" : "2.0"
    },
    "scene" : 0,
    "scenes" : [
        {
            "name" : "Scene",
            "nodes" : [
                1,
                3,
                5,
                6
            ]
        }
    ],
    "nodes" : [
        {
            "mesh" : 0,
            "name" : "Mesh_Mesh_head_geo.001_lambert2SG.001",
            "rotation" : [
                0.6992762684822083,
                0,
                0,
                0.7148515582084656
            ],
            "scale" : [
                1,
                1.0020493268966675,
                4.36359167098999
            ],
            "translation" : [
                0,
                -2.272495746612549,
                78.18754577636719
            ]
        },
        {
            "children" : [
                0
            ],
            "name" : "Node_1",
            "rotation" : [
                -0.7071068286895752,
                0,
                0,
                0.7071068286895752
            ]
        },
        {
            "mesh" : 1,
            "name" : "Mesh_Mesh_head_geo.001_lambert2SG.002",
            "scale" : [
                1,
                2.689403533935547,
                1
            ],
            "translation" : [
                1.315298318862915,
                0,
                0
            ]
        },
        {
            "children" : [
                2
            ],
            "name" : "Node_1.001",
            "rotation" : [
                -0.7071068286895752,
                0,
                0,
                0.7071068286895752
            ]
        },
        {
            "mesh" : 2,
            "name" : "Mesh_Mesh_head_geo.001_lambert2SG.003",
            "rotation" : [
                0.6992762684822083,
                0,
                0,
                0.7148515582084656
            ],
            "scale" : [
                1,
                1.0020493268966675,
                4.36359167098999
            ],
            "translation" : [
                0,
                -2.272495746612549,
                78.18754577636719
            ]
        },
        {
            "children" : [
                4
            ],
            "name" : "Node_1.002",
            "rotation" : [
                -0.7071068286895752,
                0,
                0,
                0.7071068286895752
            ],
            "translation" : [
                4.46769905090332,
                0,
                0
            ]
        },
        {
            "mesh" : 3,
            "name" : "Cube"
        }
    ],
    "materials" : [
        {
            "name" : "lambert2SG.001",
            "pbrMetallicRoughness" : {
                "metallicFactor" : 0.5,
                "roughnessFactor" : 0.5
            }
        },
        {
            "name" : "lambert2SG.002",
            "pbrMetallicRoughness" : {
                "baseColorFactor" : [
                    1,
                    0.39675483107566833,
                    0,
                    1
                ],
                "metallicFactor" : 0.5,
                "roughnessFactor" : 0.5
            }
        },
        {
            "name" : "lambert2SG.003",
            "pbrMetallicRoughness" : {
                "metallicFactor" : 0.5,
                "roughnessFactor" : 0.5
            }
        },
        {
            "doubleSided" : true,
            "name" : "Material",
            "pbrMetallicRoughness" : {
                "baseColorFactor" : [
                    0.800000011920929,
                    0.800000011920929,
                    0.800000011920929,
                    1
                ],
                "metallicFactor" : 0,
                "roughnessFactor" : 0.4000000059604645
            }
        }
    ],
    "meshes" : [
        {
            "name" : "Mesh_0",
            "primitives" : [
                {
                    "attributes" : {
                        "POSITION" : 0,
                        "NORMAL" : 1,
                        "COLOR_0" : 2
                    },
                    "indices" : 3,
                    "material" : 0
                }
            ]
        },
        {
            "name" : "Mesh_0.001",
            "primitives" : [
                {
                    "attributes" : {
                        "POSITION" : 4,
                        "NORMAL" : 5,
                        "COLOR_0" : 6
                    },
                    "indices" : 7,
                    "material" : 1
                }
            ]
        },
        {
            "name" : "Mesh_0.002",
            "primitives" : [
                {
                    "attributes" : {
                        "POSITION" : 8,
                        "NORMAL" : 9,
                        "COLOR_0" : 10
                    },
                    "indices" : 3,
                    "material" : 2
                }
            ]
        },
        {
            "name" : "Cube",
            "primitives" : [
                {
                    "attributes" : {
                        "POSITION" : 11,
                        "NORMAL" : 12,
                        "TEXCOORD_0" : 13
                    },
                    "indices" : 14,
                    "material" : 3
                }
            ]
        }
    ],
    "accessors" : [
        {
            "bufferView" : 0,
            "componentType" : 5126,
            "count" : 13020,
            "max" : [
                77,
                72,
                3.240999937057495
            ],
            "min" : [
                -76.94599914550781,
                -80.30599975585938,
                0
            ],
            "type" : "VEC3"
        },
        {
            "bufferView" : 1,
            "componentType" : 5126,
            "count" : 13020,
            "type" : "VEC3"
        },
        {
            "bufferView" : 2,
            "componentType" : 5123,
            "count" : 13020,
            "normalized" : true,
            "type" : "VEC4"
        },
        {
            "bufferView" : 3,
            "componentType" : 5123,
            "count" : 13020,
            "type" : "SCALAR"
        },
        {
            "bufferView" : 4,
            "componentType" : 5126,
            "count" : 9348,
            "max" : [
                48,
                1.4223144054412842,
                99.47456359863281
            ],
            "min" : [
                -38,
                -9.11586856842041,
                37
            ],
            "type" : "VEC3"
        },
        {
            "bufferView" : 5,
            "componentType" : 5126,
            "count" : 9348,
            "type" : "VEC3"
        },
        {
            "bufferView" : 6,
            "componentType" : 5123,
            "count" : 9348,
            "normalized" : true,
            "type" : "VEC4"
        },
        {
            "bufferView" : 7,
            "componentType" : 5123,
            "count" : 9348,
            "type" : "SCALAR"
        },
        {
            "bufferView" : 8,
            "componentType" : 5126,
            "count" : 13020,
            "max" : [
                77,
                72,
                3.240999937057495
            ],
            "min" : [
                -76.94599914550781,
                -80.30599975585938,
                0
            ],
            "type" : "VEC3"
        },
        {
            "bufferView" : 9,
            "componentType" : 5126,
            "count" : 13020,
            "type" : "VEC3"
        },
        {
            "bufferView" : 10,
            "componentType" : 5123,
            "count" : 13020,
            "normalized" : true,
            "type" : "VEC4"
        },
        {
            "bufferView" : 11,
            "componentType" : 5126,
            "count" : 24,
            "max" : [
                1,
                1,
                1
            ],
            "min" : [
                -1,
                -1,
                -1
            ],
            "type" : "VEC3"
        },
        {
            "bufferView" : 12,
            "componentType" : 5126,
            "count" : 24,
            "type" : "VEC3"
        },
        {
            "bufferView" : 13,
            "componentType" : 5126,
            "count" : 24,
            "type" : "VEC2"
        },
        {
            "bufferView" : 14,
            "componentType" : 5123,
            "count" : 36,
            "type" : "SCALAR"
        }
    ],
    "bufferViews" : [
        {
            "buffer" : 0,
            "byteLength" : 156240,
            "byteOffset" : 0
        },
        {
            "buffer" : 0,
            "byteLength" : 156240,
            "byteOffset" : 156240
        },
        {
            "buffer" : 0,
            "byteLength" : 104160,
            "byteOffset" : 312480
        },
        {
            "buffer" : 0,
            "byteLength" : 26040,
            "byteOffset" : 416640
        },
        {
            "buffer" : 0,
            "byteLength" : 112176,
            "byteOffset" : 442680
        },
        {
            "buffer" : 0,
            "byteLength" : 112176,
            "byteOffset" : 554856
        },
        {
            "buffer" : 0,
            "byteLength" : 74784,
            "byteOffset" : 667032
        },
        {
            "buffer" : 0,
            "byteLength" : 18696,
            "byteOffset" : 741816
        },
        {
            "buffer" : 0,
            "byteLength" : 156240,
            "byteOffset" : 760512
        },
        {
            "buffer" : 0,
            "byteLength" : 156240,
            "byteOffset" : 916752
        },
        {
            "buffer" : 0,
            "byteLength" : 104160,
            "byteOffset" : 1072992
        },
        {
            "buffer" : 0,
            "byteLength" : 288,
            "byteOffset" : 1177152
        },
        {
            "buffer" : 0,
            "byteLength" : 288,
            "byteOffset" : 1177440
        },
        {
            "buffer" : 0,
            "byteLength" : 192,
            "byteOffset" : 1177728
        },
        {
            "buffer" : 0,
            "byteLength" : 72,
            "byteOffset" : 1177920
        }
    ],
    "buffers" : [
        {
            "byteLength" : 1177992,
            "uri" : "data:application/octet-stream;base64,"
        }
    ]
}
