{
    "asset" : {
        "generator" : "Khronos glTF Blender I/O v1.8.19",
        "version" : "2.0"
    },
    "scene" : 0,
    "scenes" : [
        {
            "name" : "Scene",
            "nodes" : [
                1,
                3
            ]
        }
    ],
    "nodes" : [
        {
            "mesh" : 0,
            "name" : "Mesh_Mesh_head_geo.001_lambert2SG.002",
            "scale" : [
                0.0158236026763916,
                0.0158236026763916,
                0.02971494197845459
            ],
            "translation" : [
                0.008458852767944336,
                0,
                0
            ]
        },
        {
            "children" : [
                0
            ],
            "name" : "Node_1.001",
            "rotation" : [
                -0.7071068286895752,
                0,
                0,
                0.7071068286895752
            ]
        },
        {
            "mesh" : 1,
            "name" : "Mesh_Mesh_head_geo.001_lambert2SG.001",
            "rotation" : [
                -0.7032423615455627,
                0,
                0,
                0.7109502553939819
            ],
            "scale" : [
                0.015777185559272766,
                0.048265740275382996,
                0.01582520455121994
            ],
            "translation" : [
                0,
                -1.2538150548934937,
                -0.034736137837171555
            ]
        },
        {
            "children" : [
                2
            ],
            "name" : "Node_1.002",
            "rotation" : [
                -0.7071068286895752,
                0,
                0,
                0.7071068286895752
            ]
        }
    ],
    "materials" : [
        {
            "name" : "lambert2SG.002",
            "pbrMetallicRoughness" : {
                "baseColorFactor" : [
                    0.09530733525753021,
                    0.0021245433017611504,
                    0.3277779817581177,
                    1
                ],
                "metallicFactor" : 0.5,
                "roughnessFactor" : 0.5
            }
        },
        {
            "name" : "lambert2SG.003",
            "pbrMetallicRoughness" : {
                "baseColorFactor" : [
                    1,
                    0.3662523329257965,
                    0,
                    1
                ],
                "metallicFactor" : 0.5,
                "roughnessFactor" : 0.5
            }
        }
    ],
    "meshes" : [
        {
            "name" : "Mesh_0.001",
            "primitives" : [
                {
                    "attributes" : {
                        "POSITION" : 0,
                        "NORMAL" : 1,
                        "COLOR_0" : 2
                    },
                    "indices" : 3,
                    "material" : 0
                }
            ]
        },
        {
            "name" : "Mesh_0.002",
            "primitives" : [
                {
                    "attributes" : {
                        "POSITION" : 4,
                        "NORMAL" : 5,
                        "COLOR_0" : 6
                    },
                    "indices" : 7,
                    "material" : 1
                }
            ]
        }
    ],
    "accessors" : [
        {
            "bufferView" : 0,
            "componentType" : 5126,
            "count" : 13296,
            "max" : [
                69,
                69,
                10
            ],
            "min" : [
                -69,
                -69,
                0
            ],
            "type" : "VEC3"
        },
        {
            "bufferView" : 1,
            "componentType" : 5126,
            "count" : 13296,
            "type" : "VEC3"
        },
        {
            "bufferView" : 2,
            "componentType" : 5123,
            "count" : 13296,
            "normalized" : true,
            "type" : "VEC4"
        },
        {
            "bufferView" : 3,
            "componentType" : 5123,
            "count" : 13296,
            "type" : "SCALAR"
        },
        {
            "bufferView" : 4,
            "componentType" : 5126,
            "count" : 9348,
            "max" : [
                48,
                1.4223144054412842,
                99.47456359863281
            ],
            "min" : [
                -38,
                -9.11586856842041,
                37
            ],
            "type" : "VEC3"
        },
        {
            "bufferView" : 5,
            "componentType" : 5126,
            "count" : 9348,
            "type" : "VEC3"
        },
        {
            "bufferView" : 6,
            "componentType" : 5123,
            "count" : 9348,
            "normalized" : true,
            "type" : "VEC4"
        },
        {
            "bufferView" : 7,
            "componentType" : 5123,
            "count" : 9348,
            "type" : "SCALAR"
        }
    ],
    "bufferViews" : [
        {
            "buffer" : 0,
            "byteLength" : 159552,
            "byteOffset" : 0
        },
        {
            "buffer" : 0,
            "byteLength" : 159552,
            "byteOffset" : 159552
        },
        {
            "buffer" : 0,
            "byteLength" : 106368,
            "byteOffset" : 319104
        },
        {
            "buffer" : 0,
            "byteLength" : 26592,
            "byteOffset" : 425472
        },
        {
            "buffer" : 0,
            "byteLength" : 112176,
            "byteOffset" : 452064
        },
        {
            "buffer" : 0,
            "byteLength" : 112176,
            "byteOffset" : 564240
        },
        {
            "buffer" : 0,
            "byteLength" : 74784,
            "byteOffset" : 676416
        },
        {
            "buffer" : 0,
            "byteLength" : 18696,
            "byteOffset" : 751200
        }
    ],
    "buffers" : [
        {
            "byteLength" : 769896,
            "uri" : "data:application/octet-stream;base64,"
        }
    ]
}
