{
    "asset" : {
        "generator" : "Khronos glTF Blender I/O v1.8.19",
        "version" : "2.0"
    },
    "scene" : 0,
    "scenes" : [
        {
            "name" : "Scene",
            "nodes" : [
                1,
                2
            ]
        }
    ],
    "nodes" : [
        {
            "mesh" : 0,
            "name" : "Mesh_Mesh_head_geo.001_lambert2SG.002",
            "scale" : [
                0.0158236026763916,
                0.0158236026763916,
                0.02971494197845459
            ],
            "translation" : [
                0.008458852767944336,
                0,
                0
            ]
        },
        {
            "children" : [
                0
            ],
            "name" : "Node_1.001",
            "rotation" : [
                -0.7071068286895752,
                0,
                0,
                0.7071068286895752
            ]
        },
        {
            "mesh" : 1,
            "name" : "Cube",
            "rotation" : [
                -1,
                0,
                0,
                7.549790126404332e-08
            ],
            "scale" : [
                2.5040087699890137,
                0.6503788828849792,
                0.6521067023277283
            ],
            "translation" : [
                0.04335983097553253,
                0.14828738570213318,
                0.045603781938552856
            ]
        }
    ],
    "materials" : [
        {
            "name" : "lambert2SG.002",
            "pbrMetallicRoughness" : {
                "baseColorFactor" : [
                    0.09530733525753021,
                    0.0021245433017611504,
                    0.3277779817581177,
                    1
                ],
                "metallicFactor" : 0.5,
                "roughnessFactor" : 0.5
            }
        },
        {
            "doubleSided" : true,
            "name" : "Material.001",
            "pbrMetallicRoughness" : {
                "baseColorFactor" : [
                    1,
                    0.3662523329257965,
                    0,
                    1
                ],
                "metallicFactor" : 0,
                "roughnessFactor" : 0.5
            }
        }
    ],
    "meshes" : [
        {
            "name" : "Mesh_0.001",
            "primitives" : [
                {
                    "attributes" : {
                        "POSITION" : 0,
                        "NORMAL" : 1,
                        "COLOR_0" : 2
                    },
                    "indices" : 3,
                    "material" : 0
                }
            ]
        },
        {
            "name" : "Cube.001",
            "primitives" : [
                {
                    "attributes" : {
                        "POSITION" : 4,
                        "NORMAL" : 5,
                        "TEXCOORD_0" : 6
                    },
                    "indices" : 7,
                    "material" : 1
                }
            ]
        }
    ],
    "accessors" : [
        {
            "bufferView" : 0,
            "componentType" : 5126,
            "count" : 13296,
            "max" : [
                69,
                69,
                10
            ],
            "min" : [
                -69,
                -69,
                0
            ],
            "type" : "VEC3"
        },
        {
            "bufferView" : 1,
            "componentType" : 5126,
            "count" : 13296,
            "type" : "VEC3"
        },
        {
            "bufferView" : 2,
            "componentType" : 5123,
            "count" : 13296,
            "normalized" : true,
            "type" : "VEC4"
        },
        {
            "bufferView" : 3,
            "componentType" : 5123,
            "count" : 13296,
            "type" : "SCALAR"
        },
        {
            "bufferView" : 4,
            "componentType" : 5126,
            "count" : 24,
            "max" : [
                0.2990420460700989,
                0.2157840132713318,
                0.8803110122680664
            ],
            "min" : [
                -0.2990420460700989,
                -0.2157840132713318,
                -0.8803110122680664
            ],
            "type" : "VEC3"
        },
        {
            "bufferView" : 5,
            "componentType" : 5126,
            "count" : 24,
            "type" : "VEC3"
        },
        {
            "bufferView" : 6,
            "componentType" : 5126,
            "count" : 24,
            "type" : "VEC2"
        },
        {
            "bufferView" : 7,
            "componentType" : 5123,
            "count" : 36,
            "type" : "SCALAR"
        }
    ],
    "bufferViews" : [
        {
            "buffer" : 0,
            "byteLength" : 159552,
            "byteOffset" : 0
        },
        {
            "buffer" : 0,
            "byteLength" : 159552,
            "byteOffset" : 159552
        },
        {
            "buffer" : 0,
            "byteLength" : 106368,
            "byteOffset" : 319104
        },
        {
            "buffer" : 0,
            "byteLength" : 26592,
            "byteOffset" : 425472
        },
        {
            "buffer" : 0,
            "byteLength" : 288,
            "byteOffset" : 452064
        },
        {
            "buffer" : 0,
            "byteLength" : 288,
            "byteOffset" : 452352
        },
        {
            "buffer" : 0,
            "byteLength" : 192,
            "byteOffset" : 452640
        },
        {
            "buffer" : 0,
            "byteLength" : 72,
            "byteOffset" : 452832
        }
    ],
    "buffers" : [
        {
            "byteLength" : 452904,
            "uri" : "data:application/octet-stream;base64,"
        }
    ]
}
